<?xml version="1.0" encoding="UTF-8"?>
<svg width="512px" height="454px" viewBox="0 0 512 454" version="1.1" xmlns="http://www.w3.org/2000/svg" xmlns:xlink="http://www.w3.org/1999/xlink">
    <title>tick</title>
    <g id="Page-1" stroke="none" stroke-width="1" fill="none" fill-rule="evenodd">
        <g id="tick" fill="#FFFFFF" fill-rule="nonzero">
            <path d="M507.001,5.541 C500.337,-1.123 489.53,-1.123 482.865,5.541 L446.927,41.479 L446.927,23.597 C446.927,14.172 439.286,6.53 429.86,6.53 L17.067,6.53 C7.641,6.531 0,14.172 0,23.597 L0,436.391 C0,445.816 7.641,453.458 17.067,453.458 L429.862,453.458 C439.287,453.458 446.929,445.817 446.929,436.391 L446.929,89.75 L507.003,29.676 C513.667,23.012 513.667,12.206 507.001,5.541 Z M412.795,75.612 L222.797,265.608 L120.925,163.736 C114.261,157.071 103.454,157.071 96.789,163.736 C90.124,170.401 90.124,181.207 96.789,187.872 L210.729,301.812 C217.394,308.477 228.2,308.477 234.865,301.812 L412.795,123.883 L412.795,419.324 L34.133,419.324 L34.133,40.664 L412.795,40.664 L412.795,75.612 Z" id="Shape"></path>
        </g>
    </g>
</svg>